# xmcd
# Track frame offsets:
# 150
# 21154
# 43308
# 73352
# 99696
# 135222
# 152301
# 172386
# 195286
# 213343
# 235686
#
# Disc length: 3492 seconds
# Revision: 0
# Processed by: cddbd v1.5.1PL0 Copyright (c) Steve Scherf et al.
# Submitted via: VisiTrax 2.9.10.228 - For more info visit www.synapsa.com
#
DISCID=940da20b
DTITLE=Billy Hector - Out of Order The Stone Pony Sessions
DYEAR=1900
DGENRE=Blues
TTITLE0=Hammer
TTITLE1=Howlin' for My Baby
TTITLE2=Daddy Rollin' Stone
TTITLE3=Whiskey
TTITLE4=Old School Thing
TTITLE5=Busted
TTITLE6=Memphis Train
TTITLE7=Big Legs, Tight Skirt
TTITLE8=Patricia
TTITLE9=Stop Doggin' Me Round
TTITLE10=Dealin' with the devil
EXTD=
EXTT0=
EXTT1=
EXTT2=
EXTT3=
EXTT4=
EXTT5=
EXTT6=
EXTT7=
EXTT8=
EXTT9=
EXTT10=
PLAYORDER=
